<?xml version="1.0" encoding="utf-8"?>
<!-- Generator: Adobe Illustrator 24.2.1, SVG Export Plug-In . SVG Version: 6.00 Build 0)  -->
<svg version="1.1" id="Layer_1" xmlns="http://www.w3.org/2000/svg" xmlns:xlink="http://www.w3.org/1999/xlink" x="0px" y="0px"
	 viewBox="0 0 491 771" style="enable-background:new 0 0 491 771;" xml:space="preserve">
<style type="text/css">
	.st0{fill:#F48677;}
	.st1{fill:#FF9999;stroke:#FFFFFF;stroke-width:23;stroke-miterlimit:10;}
</style>
<g>
	<g>
		<g>
			<path class="st0" d="M245.72,9.04c-129.51,0-234.5,104.99-234.5,234.5c0,1.86,0.02,3.72,0.06,5.56
				c1.06,45.32,14.97,87.46,38.23,122.91c2.45,3.73,5,7.38,7.65,10.95c18.09,27.41,32.74,60.02,47.93,98.07
				c14.06,35.22,23.91,68.04,30.92,97c0,0,54.82,22,110.21,22c45.97,0,90-16,109.21-22c5.19-27.16,13.46-59.21,26.93-94
				c15.25-39.38,31.18-71.6,49.25-97.55c30.48-39.57,48.61-89.14,48.61-142.95C480.22,114.03,375.23,9.04,245.72,9.04z
				 M183.72,271.04c10.22,0,18.5,8.28,18.5,18.5c0,10.22-8.28,18.5-18.5,18.5s-18.5-8.28-18.5-18.5
				C165.22,279.32,173.5,271.04,183.72,271.04z M184.21,437.23l-0.24,151.81l-0.25-157 M216.22,432.04h-64v-79.26
				c0-15.39,12.59-28.26,29-29.6c0.3-0.02,0.61-0.05,0.91-0.07c18.47-1.24,34.09,12.68,34.09,29.97V432.04z M304.72,271.04
				c10.22,0,18.5,8.28,18.5,18.5c0,10.22-8.28,18.5-18.5,18.5s-18.5-8.28-18.5-18.5C286.22,279.32,294.5,271.04,304.72,271.04z
				 M304.97,432.04v152 M336.22,432.04h-64v-79.26c0-15.39,12.59-28.26,29-29.6c0.3-0.02,0.61-0.05,0.91-0.07
				c18.47-1.24,34.09,12.68,34.09,29.97V432.04z"/>
			<path class="st0" d="M135.22,612.09l1.98,122.95c25.01,12.25,80.56,34.91,149.94,24.98c29.62-4.24,53.97-13.3,72.08-21.98
				c0-42,0-84,0-126C237.08,664.36,136.82,613.82,135.22,612.09z"/>
		</g>
	</g>
	<line class="st1" x1="304.97" y1="428.04" x2="304.22" y2="598.81"/>
	<line class="st1" x1="185.3" y1="427.81" x2="184.55" y2="600.27"/>
</g>
<g>
</g>
<g>
</g>
<g>
</g>
<g>
</g>
<g>
</g>
<g>
</g>
<g>
</g>
<g>
</g>
<g>
</g>
<g>
</g>
<g>
</g>
<g>
</g>
<g>
</g>
<g>
</g>
<g>
</g>
</svg>
